<svg id="Layer_1" xmlns="http://www.w3.org/2000/svg" xmlns:xlink="http://www.w3.org/1999/xlink" viewBox="-196 326.5 197.4 179.5"><style>.st0{fill:none;stroke:#143151;stroke-width:4.5;stroke-miterlimit:10;} .st1{clip-path:url(#SVGID_2_);fill:none;stroke:#143151;stroke-width:4;stroke-miterlimit:10;} .st2{clip-path:url(#SVGID_4_);fill:#143151;} .st3{clip-path:url(#SVGID_6_);fill:#143151;} .st4{clip-path:url(#SVGID_8_);fill:none;stroke:#143151;stroke-width:4;stroke-miterlimit:10;} .st5{clip-path:url(#SVGID_10_);fill:none;stroke:#143151;stroke-width:4;stroke-miterlimit:10;} .st6{clip-path:url(#SVGID_12_);fill:#143151;} .st7{clip-path:url(#SVGID_14_);fill:none;stroke:#143151;stroke-width:4;stroke-miterlimit:10;} .st8{clip-path:url(#SVGID_16_);fill:#143151;} .st9{clip-path:url(#SVGID_18_);fill:#143151;} .st10{clip-path:url(#SVGID_20_);fill:none;stroke:#143151;stroke-width:4;stroke-miterlimit:10;} .st11{clip-path:url(#SVGID_22_);fill:#143151;} .st12{clip-path:url(#SVGID_24_);fill:#143151;}</style><path class="st0" d="M-179 419.2h131.9v44H-179zM-178.6 451.3h131.1M-178.6 441.2h131.1M-129.7 406.8h33.4v12.4h-33.4z"/><path class="st0" d="M-177.8 463.1h7.3v20.5h-7.3zM-93.4 463.1h7.3v20.5h-7.3zM-54.7 463.1h7.3v20.5h-7.3zM-176.7 418l71.5-67.2 6.7 3.6-57.6 63.4M-103.6 360.5l48.9 58.7"/><defs><path id="SVGID_1_" d="M-19 370H1.1v20.6H-19z"/></defs><clipPath id="SVGID_2_"><use xlink:href="#SVGID_1_" overflow="visible"/></clipPath><path class="st1" d="M-12.4 387.4v-9.9l11.8-5.1v12.4"/><defs><path id="SVGID_3_" d="M-19 370H1.1v20.6H-19z"/></defs><clipPath id="SVGID_4_"><use xlink:href="#SVGID_3_" overflow="visible"/></clipPath><path class="st2" d="M-10.7 387.4c0 1.7-1.9 3.1-4.1 3.1s-4.1-1.4-4.1-3.1c0-1.7 1.9-3.1 4.1-3.1s4.1 1.4 4.1 3.1"/><g><defs><path id="SVGID_5_" d="M-19 370H1.1v20.6H-19z"/></defs><clipPath id="SVGID_6_"><use xlink:href="#SVGID_5_" overflow="visible"/></clipPath><path class="st3" d="M1.1 384.3c0 1.7-1.9 3.1-4.1 3.1s-4.1-1.4-4.1-3.1c0-1.7 1.9-3.1 4.1-3.1s4.1 1.4 4.1 3.1"/></g><g><defs><path id="SVGID_7_" d="M-72 326.7h70.4v146H-72z"/></defs><clipPath id="SVGID_8_"><use xlink:href="#SVGID_7_" overflow="visible"/></clipPath><path class="st4" d="M-15.7 433.6c-6.6-.2-12.3 5.1-12.4 11.8 0 3.1 1.1 6.3 5 8.9 10.3 7 12.8 15.7 12.8 15.7-1.1 7.1 19.1-35.7-5.4-36.4z"/><g><defs><path id="SVGID_9_" d="M-72 326.7h70.4v146H-72z"/></defs><clipPath id="SVGID_10_"><use xlink:href="#SVGID_9_" overflow="visible"/></clipPath><path class="st5" d="M-22.2 436l-47.4-99.1c-1.4-3-.1-6.6 3-7.9 3-1.3 6.5.2 7.7 3.2l40.8 102.1"/></g><g><defs><path id="SVGID_11_" d="M-72 326.7h70.4v146H-72z"/></defs><clipPath id="SVGID_12_"><use xlink:href="#SVGID_11_" overflow="visible"/></clipPath><path class="st6" d="M-17.7 458.1c.8-1.7 1.8-4.1 4-4.2 1.5-.1 2.9 1.1 4.4 1.3 2.4.4 4.7-.6 6.2-2.5 1.1-1.4-.8-3.4-2-2-3 3.7-6.1-.4-9.7.5-2.7.6-4.2 3.2-5.3 5.5-.8 1.6 1.6 3 2.4 1.4"/></g></g><g><defs><path id="SVGID_13_" d="M-128.9 485.3h20.3V506h-20.3z"/></defs><clipPath id="SVGID_14_"><use xlink:href="#SVGID_13_" overflow="visible"/></clipPath><path class="st7" d="M-122.3 502.8v-9.9l12-5.2v12.4"/><g><defs><path id="SVGID_15_" d="M-128.9 485.3h20.3V506h-20.3z"/></defs><clipPath id="SVGID_16_"><use xlink:href="#SVGID_15_" overflow="visible"/></clipPath><path class="st8" d="M-120.6 502.8c0 1.7-1.9 3.1-4.2 3.1s-4.2-1.4-4.2-3.1 1.9-3.1 4.2-3.1 4.2 1.4 4.2 3.1"/></g><g><defs><path id="SVGID_17_" d="M-128.9 485.3h20.3V506h-20.3z"/></defs><clipPath id="SVGID_18_"><use xlink:href="#SVGID_17_" overflow="visible"/></clipPath><path class="st9" d="M-108.7 499.7c0 1.7-1.9 3.1-4.2 3.1-2.3 0-4.2-1.4-4.2-3.1 0-1.7 1.9-3.1 4.2-3.1 2.4 0 4.2 1.4 4.2 3.1"/></g></g><g><defs><path id="SVGID_19_" d="M-195.9 358.3h20.3V379h-20.3z"/></defs><clipPath id="SVGID_20_"><use xlink:href="#SVGID_19_" overflow="visible"/></clipPath><path class="st10" d="M-189.3 375.8v-9.9l12-5.2v12.4"/><g><defs><path id="SVGID_21_" d="M-195.9 358.3h20.3V379h-20.3z"/></defs><clipPath id="SVGID_22_"><use xlink:href="#SVGID_21_" overflow="visible"/></clipPath><path class="st11" d="M-187.6 375.8c0 1.7-1.9 3.1-4.2 3.1s-4.2-1.4-4.2-3.1 1.9-3.1 4.2-3.1 4.2 1.4 4.2 3.1"/></g><g><defs><path id="SVGID_23_" d="M-195.9 358.3h20.3V379h-20.3z"/></defs><clipPath id="SVGID_24_"><use xlink:href="#SVGID_23_" overflow="visible"/></clipPath><path class="st12" d="M-175.7 372.7c0 1.7-1.9 3.1-4.2 3.1-2.3 0-4.2-1.4-4.2-3.1 0-1.7 1.9-3.1 4.2-3.1 2.4 0 4.2 1.4 4.2 3.1"/></g></g></svg>