<svg id="Layer_1" xmlns="http://www.w3.org/2000/svg" viewBox="-237 337.3 135.9 119.7"><style>.st0{fill:none;stroke:#143151;stroke-width:4;stroke-miterlimit:10;} .st1{fill:none;stroke:#143151;stroke-width:4;stroke-linecap:round;stroke-linejoin:round;stroke-miterlimit:10;}</style><circle class="st0" cx="-147" cy="444" r="11"/><path class="st1" d="M-123.4 339.3l-15.7 15.7M-139.1 339.3l15.7 15.7M-103.1 439l-15.7 15.7M-118.8 439l15.7 15.7"/><circle class="st0" cx="-191.5" cy="387" r="43.5"/><path class="st0" d="M-179.7 343.5s-13 38.8-55.3 31.7M-189.2 430.5s-11.7-52.9 25.9-47l15.3 3.5M-153.9 364.7s-34.1-8.2-69.4 51.7M-211.5 348.2s50.5 27.1 52.9 68.2"/><path class="st1" d="M-136 438s34-16.1 23-70.1M-120 378.9l7-11 9 9"/></svg>