<svg id="Layer_1" xmlns="http://www.w3.org/2000/svg" viewBox="-322.2 293.7 130.6 182.1"><style>.st0{fill:none;stroke:#143151;stroke-width:3;stroke-miterlimit:10;} .st1{fill:#143151;} .st2{fill:none;stroke:#143151;stroke-width:2;stroke-miterlimit:10;}</style><path class="st0" d="M-205.524 465.325l-101.413 8.823-13.59-156.204 101.412-8.823zM-304.6 342.1l37.4-3.2M-303.6 353.2l37.4-3.2M-302.6 364.4l37.3-3.2M-301.7 375.5l37.4-3.2M-257 394.5l32.1-2.8M-256 405.6l32-2.8M-255 416.8l32-2.8M-254.1 427.9l32.1-2.8"/><path class="st1" d="M-286.415 433.416l-10.16.884-2.437-27.993 10.16-.884zM-272.96 432.21l-10.16.885-3.25-37.358 10.16-.884zM-259.297 431.036l-10.162.884-1.394-16.038 10.16-.885z"/><path class="st0" d="M-308.2 316.9l-1.1-12.7 102.2-8.9 13.9 160.2-13 1.2"/><circle class="st2" cx="-241.8" cy="352.8" r="16.7"/><path class="st1" d="M-294.3 445.8c-.7 2.6-1.1 6.1 1.8 7.8 4.4 2.4 8.8-2.8 12.6-3.8 4-.9 5.6 3.7 9.9 3 1.9-.3 3-1.5 4.7-2.2 3.2-1.6 6.8-.7 10.4-1.2 2.5-.4 2.2-4.4-.3-4-3.5.4-5.7-1.7-9.2-.1-1.2.5-2.1 1.7-3.2 2.2-9 3.3-2.8-.3-6.5-2.1-2-1-3.1-1.3-5.2-.5-2.5.9-12.8 8.5-11 1.6.6-2.5-3.3-3.2-4-.7zM-247.5 361.4c1.4-5.8 5.4-11.6 8.1-16.8-1.2-.3-2.6-.4-3.8-.7.8 5.7 2.8 10.9 6.5 15.6 1.7 2 4.8-.3 3.3-2.3-3.2-4-5-8.4-5.7-13.5-.3-2-2.9-2.4-3.8-.7-2.9 5.6-6.9 11.6-8.4 17.8-.7 2.5 3.2 3.2 3.8.6z"/><path class="st1" d="M-248.1 359.2c5.6-2.1 11.2-3.9 17-5.5 2.5-.8 1.1-4.5-1.4-3.8-5.8 1.6-11.4 3.4-17 5.5-2.3.9-.9 4.6 1.4 3.8z"/></svg>