<svg id="Layer_1" xmlns="http://www.w3.org/2000/svg" viewBox="0 0 577.4 256.7"><style>.st0{fill:#FFFFFF;}</style><path class="st0" d="M7.5 1.7h23.8c4.4 0 8.5.6 12.2 1.8 3.8 1.2 7 2.9 9.8 5.2 2.8 2.3 4.9 5.1 6.5 8.4 1.5 3.3 2.3 7.2 2.3 11.5 0 3.4-.5 6.4-1.4 8.8-1 2.4-2 4.4-3.2 6-1.4 1.8-2.9 3.3-4.7 4.5l12.9 22.7H39.9L29.6 53.1v17.5h-22V1.7zm22.1 33.8h1.1c2.6 0 4.8-.6 6.7-1.8 1.8-1.2 2.7-3.1 2.7-5.9 0-2.8-.9-4.7-2.7-5.9-1.8-1.2-4-1.8-6.7-1.8h-1.1v15.4zM65.7 36.2c0-5 .9-9.6 2.8-14.1 1.9-4.4 4.5-8.2 7.7-11.5 3.3-3.3 7.1-5.9 11.5-7.7C92.2.9 96.9 0 101.9 0s9.6.9 14.1 2.8c4.4 1.9 8.2 4.5 11.5 7.7 3.3 3.3 5.9 7.1 7.7 11.5 1.9 4.4 2.8 9.1 2.8 14.1s-.9 9.6-2.8 14.1c-1.9 4.4-4.5 8.3-7.7 11.5-3.3 3.3-7.1 5.9-11.5 7.7-4.4 1.9-9.1 2.8-14.1 2.8s-9.6-.9-14.1-2.8c-4.4-1.9-8.3-4.5-11.5-7.7-3.3-3.3-5.9-7.1-7.7-11.5-1.9-4.4-2.9-9.1-2.9-14zm21.7 0c0 2 .4 3.9 1.1 5.6.8 1.8 1.8 3.3 3.1 4.6 1.3 1.3 2.8 2.3 4.6 3.1 1.8.8 3.6 1.1 5.6 1.1 2 0 3.9-.4 5.6-1.1 1.8-.8 3.3-1.8 4.6-3.1 1.3-1.3 2.3-2.8 3.1-4.6.8-1.8 1.1-3.6 1.1-5.6 0-2-.4-3.9-1.1-5.6-.8-1.8-1.8-3.3-3.1-4.6-1.3-1.3-2.8-2.3-4.6-3.1-1.8-.8-3.6-1.1-5.6-1.1-2 0-3.9.4-5.6 1.1-1.8.8-3.3 1.8-4.6 3.1-1.3 1.3-2.3 2.8-3.1 4.6-.7 1.7-1.1 3.6-1.1 5.6zM143.7 1.7h22.9v50.8h19v18.1h-42V1.7zM189.3 1.7h40.6v18.1h-18.6v7.6h18.3v17.2h-18.3v8h19.3v18.1h-41.3v-69zM257.5 1.7h18.2l18 26.5 17.9-26.5h18.2v68.9h-22V45.8l-14.1 20.7-14.2-20.7v24.8h-22V1.7zM335.4 36.2c0-5 .9-9.6 2.8-14.1 1.9-4.4 4.5-8.2 7.8-11.5 3.3-3.3 7.1-5.9 11.5-7.7C361.9 1 366.6.1 371.6.1s9.6.9 14.1 2.8c4.4 1.9 8.2 4.5 11.5 7.7 3.3 3.3 5.9 7.1 7.8 11.5 1.9 4.4 2.8 9.1 2.8 14.1s-.9 9.6-2.8 14.1c-1.9 4.4-4.5 8.3-7.8 11.5-3.3 3.3-7.1 5.9-11.5 7.7-4.4 1.9-9.1 2.8-14.1 2.8s-9.6-.9-14.1-2.8c-4.4-1.9-8.3-4.5-11.5-7.7-3.3-3.3-5.9-7.1-7.8-11.5-1.8-4.5-2.8-9.2-2.8-14.1zm21.7 0c0 2 .4 3.9 1.1 5.6.8 1.8 1.8 3.3 3.1 4.6 1.3 1.3 2.8 2.3 4.6 3.1 1.8.8 3.6 1.1 5.6 1.1 2 0 3.9-.4 5.6-1.1 1.8-.8 3.3-1.8 4.6-3.1 1.3-1.3 2.3-2.8 3.1-4.6.8-1.8 1.1-3.6 1.1-5.6 0-2-.4-3.9-1.1-5.6-.8-1.8-1.8-3.3-3.1-4.6-1.3-1.3-2.8-2.3-4.6-3.1s-3.6-1.1-5.6-1.1c-2 0-3.9.4-5.6 1.1s-3.3 1.8-4.6 3.1c-1.3 1.3-2.3 2.8-3.1 4.6-.7 1.7-1.1 3.6-1.1 5.6zM413.4 70.6V1.7h19.1c6.5 0 12.2.7 17.3 2.2 5.1 1.4 9.3 3.6 12.8 6.5s6.1 6.5 8 10.8c1.8 4.3 2.7 9.3 2.7 14.9s-.9 10.6-2.7 14.9c-1.8 4.3-4.5 7.9-8 10.8-3.5 2.9-7.8 5.1-12.8 6.6-5.1 1.5-10.8 2.2-17.3 2.2h-19.1zm22-19.7c5.2 0 9.2-1.2 12-3.7s4.2-6.2 4.2-11.2c0-5-1.4-8.7-4.2-11.2-2.8-2.4-6.8-3.6-12-3.6v29.7zM479.1 1.7h40.6v18.1h-18.6v7.6h18.3v17.2h-18.3v8h19.3v18.1h-41.3v-69zM526.6 1.7h22.9v50.8h19v18.1h-42V1.7zM6 81.2h24.9l24.6 36.2 24.4-36.2h24.9v94.2H74.6v-33.9l-19.2 28.2-19.3-28.2v33.9H6V81.2zM114.6 81.2h55.5v24.7h-25.4v10.5h25v23.4h-25v10.9h26.4v24.7h-56.5V81.2zM179.6 81.2h24.7l26 36.3V81.2h29.5v94.2h-24.9l-25.8-36.2v36.2h-29.5V81.2zM282.1 105.9h-17.4V81.2h65.8v24.7h-17.4v69.5H282v-69.5zM435.8 81.2h32.5c6 0 11.6.8 16.7 2.4 5.1 1.6 9.6 4 13.3 7.1 3.8 3.1 6.7 6.9 8.8 11.5 2.1 4.6 3.2 9.8 3.2 15.7 0 4.7-.7 8.7-2 12-1.3 3.3-2.8 6-4.4 8.2-1.9 2.4-4 4.5-6.4 6.2l17.7 31.1H480l-14.1-23.9v23.9h-30.1V81.2zm30 46.3h1.6c3.6 0 6.6-.8 9.1-2.4 2.5-1.6 3.7-4.3 3.7-8.1s-1.2-6.4-3.7-8.1c-2.5-1.6-5.5-2.4-9.1-2.4h-1.6v21zM517.7 146.2c2.1.7 4.2 1.2 6.5 1.6 1.9.5 4 .8 6.4 1.1 2.4.3 4.8.4 7.3.4 4.3 0 6.5-1.6 6.5-4.8 0-1.2-.7-2.5-2-3.7-1.3-1.3-3-2.7-5-4.2-2-1.6-4.2-3.3-6.5-5.2-2.3-1.9-4.5-4-6.5-6.5-2-2.4-3.7-5.2-5-8.3-1.3-3.1-2-6.6-2-10.5 0-4.4.8-8.3 2.4-11.7 1.6-3.4 3.8-6.2 6.6-8.5s6.1-4 10-5.2c3.8-1.2 7.9-1.8 12.2-1.8 2.3 0 4.5.1 6.8.4 2.3.2 4.3.4 6.1.6 2.1.3 4.1.6 6.1.8v26.4c-.8-.1-1.6-.2-2.5-.3-.8-.1-1.6-.2-2.5-.3-.9-.1-1.9-.1-3-.1-.6 0-1.3 0-2.1.1-.9 0-1.6.2-2.4.4-.8.2-1.4.5-2 1-.6.5-.8 1.1-.8 2 0 .8.6 1.7 1.9 2.8 1.3 1.1 2.8 2.4 4.7 4 1.8 1.5 3.9 3.2 6.1 5.2 2.2 2 4.2 4.2 6.1 6.8s3.4 5.4 4.7 8.6c1.3 3.2 1.9 6.8 1.9 10.7 0 4.1-.7 8-2 11.7-1.3 3.6-3.4 6.8-6.1 9.5-2.8 2.7-6.3 4.8-10.7 6.4-4.3 1.6-9.5 2.3-15.4 2.3-3.6 0-6.9-.2-10-.5-3.1-.3-5.8-.7-8.1-1.2-2.7-.5-5.2-1-7.5-1.7v-28.3zM424.1 109.2c-2.6-6-6.1-11.3-10.6-15.7-4.5-4.5-9.7-8-15.7-10.6-6-2.6-12.4-3.9-19.2-3.9-6.8 0-13.2 1.3-19.2 3.9-6 2.6-11.3 6.1-15.7 10.6-4.5 4.5-8 9.7-10.6 15.7-2.6 6-3.9 12.4-3.9 19.2 0 6.8 1.3 13.2 3.9 19.2 2.6 6 6.1 11.3 10.6 15.7 4.5 4.5 9.7 8 15.7 10.6 6 2.6 12.4 3.9 19.2 3.9 6.8 0 13.2-1.3 19.2-3.9 6-2.6 11.3-6.1 15.7-10.6 4.5-4.5 8-9.7 10.6-15.7 2.6-6 3.9-12.4 3.9-19.2 0-6.8-1.3-13.2-3.9-19.2zm-32.6 25l3.3 19.1-17.1-9-17.1 9 3.3-19.1-13.9-13.5 19.1-2.8 8.6-17.3 8.6 17.3 19.1 2.8-13.9 13.5zM21.7 246.3c-5.6 0-9-2.4-11.6-6v11.3h4.5v5.2H0v-5.2h4.4V220H0v-5.2h10.1v5.8c2.6-4.2 6.2-6.4 11.2-6.4 8.8 0 15.6 7.3 15.6 16.1 0 8.6-6.6 16-15.2 16zm-.9-26.6c-5.8 0-10.6 4.3-10.6 10.4 0 6.2 4.9 10.6 10.6 10.6 5.9 0 10.4-4.7 10.4-10.6 0-5.9-4.4-10.4-10.4-10.4zM55.5 246.5c-9 0-16.2-7.3-16.2-16.2 0-8.9 7.3-16.3 16.2-16.3s16.2 7.3 16.2 16.1c.1 9-7.3 16.4-16.2 16.4zm.1-26.9c-5.9 0-10.5 4.8-10.5 10.7 0 5.8 4.7 10.6 10.5 10.6S66 236.1 66 230.2c0-5.9-4.5-10.6-10.4-10.6zM86.7 246.3c-3.7 0-6.2-1.3-8.1-3.7v3.1h-4.2v-9H80c.6 3.5 2.6 5.3 6 5.3 3.2 0 5.3-1.9 5.3-4.6 0-2-1.3-3.4-3.6-4.1-6.6-1.9-13-3-13-10.1 0-4.9 4-9 9.9-9 3.8 0 5.5 1.3 7 3v-2.3h4.2v8.1h-5.5c-.3-3-2.2-4.4-4.9-4.4-2.8 0-4.7 1.7-4.7 4.2 0 2.2 1.5 3.5 3.6 4 6.3 1.7 13 2.6 13 10.1-.1 5.2-4.4 9.4-10.6 9.4zM100.2 245.6v-5.2h4.5V220h-4.5v-5.2h10.2v25.6h4.5v5.2h-14.7zm4.6-34.6v-6.9h5.6v6.9h-5.6zM122.5 245.6V220h-5.4v-5.2h5.4v-10.7h5.6v10.7h5.9v5.2h-5.9v20.4h6.3v5.2h-11.9zM136.6 245.6v-5.2h4.5V220h-4.5v-5.2h10.2v25.6h4.5v5.2h-14.7zm4.6-34.6v-6.9h5.6v6.9h-5.6zM182.8 220l-10.4 25.6h-6L156.2 220h-4.4v-5.2H166v5.2h-3.7l7 18.6 7.4-18.6h-3.9v-5.2H187v5.2h-4.2zM218.2 232.3h-26.3c1.3 6.4 6.1 9.1 10.6 9.1 3.9 0 6.7-1.6 8.8-4.7h5.9c-2.8 6.3-8.4 9.8-14.6 9.8-8.7 0-16.2-6.9-16.2-16.2 0-9.2 7.3-16.3 16-16.3 8.5 0 16.1 6.6 16.1 16.4-.2.6-.3 1.5-.3 1.9zM202.3 219c-4.5 0-9.2 3.1-10.5 9h21.3c-1.3-6-6.2-9-10.8-9zM241.6 193v11.1h11.1v8.7h-11.1V224h-8.7v-11.1h-11.1v-8.7h11.1V193h8.7zM272.4 245.6v-5.2h4.5V220h-4.5v-5.2h10.2v25.6h4.5v5.2h-14.7zm4.5-34.6v-6.9h5.6v6.9h-5.6zM312 245.6v-5.2h4.5v-11.7c0-6.4-3.8-8.9-8-8.9-4.5 0-8 2.6-8 9.3v11.3h4.5v5.2h-14.7v-5.2h4.5V220h-4.5v-5.2h10.2v4.9c2.1-3.7 5.5-5.5 9.6-5.5 5.1 0 9.5 3.1 11.2 7.4.7 1.9.8 3.7.8 5.3v13.5h4.5v5.2H312zM347.5 245.6v-5.2h4.8v-31.1h-7.5c-5.9 0-5.6 3.8-5.6 5.5h5.6v5.2h-5.6v20.4h4.7v5.2H329v-5.2h4.5V220H329v-5.2h4.5c.1-2.3.1-4.4 1.5-6.5 1.9-2.8 5.2-4.2 9.8-4.2h13.1v36.3h4.5v5.2h-14.9zM390.5 245.6v-4.5c-2.4 3.5-6 5.2-9.8 5.2-6 0-11.7-4.4-11.7-12.4V220h-4.5v-5.2h10.1v17.3c0 6.1 3.7 8.6 7.6 8.6 3.7 0 7.9-2.3 7.9-8.7v-12h-4.5v-5.2h10.2v25.6h4.5v5.2h-9.8zM435 232.3h-26.3c1.3 6.4 6.1 9.1 10.6 9.1 3.9 0 6.7-1.6 8.8-4.7h5.9c-2.8 6.3-8.4 9.8-14.6 9.8-8.7 0-16.2-6.9-16.2-16.2 0-9.2 7.3-16.3 16-16.3 8.5 0 16.1 6.6 16.1 16.4-.1.6-.3 1.5-.3 1.9zM419.1 219c-4.5 0-9.2 3.1-10.5 9H430c-1.4-6-6.2-9-10.9-9zM459.6 245.6v-5.2h4.5v-11.7c0-6.4-3.8-8.9-8-8.9-4.5 0-8 2.6-8 9.3v11.3h4.5v5.2H438v-5.2h4.5V220H438v-5.2h10.2v4.9c2.1-3.7 5.5-5.5 9.6-5.5 5.1 0 9.5 3.1 11.2 7.4.7 1.9.8 3.7.8 5.3v13.5h4.5v5.2h-14.7zM492.2 246.5c-8.7 0-16.2-7.2-16.2-16.3 0-9 7.2-16.2 15.6-16.2 4 0 7.1 1.5 9.8 4.4v-3.5h4.8v9.8h-5.1c-2.3-3.3-5.5-5-9-5-5.8 0-10.5 4.7-10.5 10.7 0 5.8 4.6 10.6 10.6 10.6 3.8 0 7-1.9 8.9-5.4h6.2c-2.5 7.1-8.9 10.9-15.1 10.9zM540.5 232.3h-26.3c1.3 6.4 6.1 9.1 10.6 9.1 3.9 0 6.7-1.6 8.8-4.7h5.9c-2.8 6.3-8.4 9.8-14.6 9.8-8.7 0-16.2-6.9-16.2-16.2 0-9.2 7.3-16.3 16-16.3 8.5 0 16.1 6.6 16.1 16.4-.1.6-.2 1.5-.3 1.9zM524.6 219c-4.5 0-9.2 3.1-10.5 9h21.3c-1.3-6-6.1-9-10.8-9zM555.6 246.3c-3.7 0-6.2-1.3-8.1-3.7v3.1h-4.2v-9h5.6c.6 3.5 2.6 5.3 6 5.3 3.2 0 5.3-1.9 5.3-4.6 0-2-1.3-3.4-3.6-4.1-6.6-1.9-13-3-13-10.1 0-4.9 4-9 9.9-9 3.8 0 5.5 1.3 7 3v-2.3h4.2v8.1H559c-.3-3-2.2-4.4-4.9-4.4-2.8 0-4.7 1.7-4.7 4.2 0 2.2 1.5 3.5 3.6 4 6.3 1.7 13 2.6 13 10.1.1 5.2-4.2 9.4-10.4 9.4zM570 245.6v-7.3h5.9v7.3H570z"/></svg>