<svg id="Layer_1" xmlns="http://www.w3.org/2000/svg" xmlns:xlink="http://www.w3.org/1999/xlink" viewBox="0 0 168.8 168.1"><style>.st0{clip-path:url(#SVGID_2_);fill:none;stroke:#143151;stroke-width:5;stroke-miterlimit:10;} .st1{clip-path:url(#SVGID_2_);fill:none;stroke:#143151;stroke-width:4.767;stroke-miterlimit:10;}</style><defs><path id="SVGID_1_" d="M0 0h168.8v168.1H0z"/></defs><clipPath id="SVGID_2_"><use xlink:href="#SVGID_1_" overflow="visible"/></clipPath><path class="st0" d="M86.5 45.3l11.3 22.9c.3.7 1 1.2 1.8 1.3l25.3 3.7c1.9.3 2.7 2.6 1.3 4L107.9 95c-.6.5-.8 1.3-.7 2.1l4.3 25.2c.3 1.9-1.7 3.4-3.4 2.5l-22.6-11.9c-.7-.4-1.5-.4-2.2 0l-22.6 11.9c-1.7.9-3.7-.6-3.4-2.5L61.6 97c.1-.8-.1-1.5-.7-2.1L42.7 77.1c-1.4-1.4-.6-3.7 1.3-4l25.3-3.7c.8-.1 1.4-.6 1.8-1.3l11.3-22.9c.8-1.7 3.2-1.7 4.1.1z"/><circle class="st0" cx="84.4" cy="84.4" r="67.8"/><path class="st1" d="M165.1 70c7.7 43.2-19.9 84.7-62.6 94.4M74 165.8c-30-3.9-56.1-24.2-66.6-53.4M3.7 98.9c-5.1-28.3 5-55.9 24.6-74.3M70.3 3.6c38.8-6.8 76.2 14.9 90.3 50.3"/></svg>