<svg id="Layer_1" xmlns="http://www.w3.org/2000/svg" viewBox="-141 367 327.5 41.8"><style>.st0{fill:#FFFFFF;} .st1{fill:#EBEBEB;} .st2{fill:none;}</style><path class="st0" d="M-141 367.5h7.6c1.4 0 2.7.2 3.9.6s2.3.9 3.1 1.7c.9.7 1.6 1.6 2.1 2.7s.7 2.3.7 3.7c0 1.1-.2 2.1-.5 2.8-.3.8-.7 1.4-1 1.9-.4.6-.9 1.1-1.5 1.5l4.2 7.3h-8.3l-3.3-5.6v5.6h-7v-22.2zm7.1 10.9h.4c.8 0 1.6-.2 2.1-.6.6-.4.9-1 .9-1.9s-.3-1.5-.9-1.9c-.6-.3-1.3-.5-2.2-.5h-.3v4.9zM-122.3 378.6c0-1.6.3-3.1.9-4.5s1.4-2.7 2.5-3.7c1.1-1.1 2.3-1.9 3.7-2.5 1.4-.6 3-.9 4.5-.9 1.6 0 3.1.3 4.5.9 1.4.6 2.7 1.4 3.7 2.5 1.1 1.1 1.9 2.3 2.5 3.7.7 1.4 1 2.9 1 4.5s-.3 3.1-.9 4.5-1.4 2.7-2.5 3.7c-1.1 1.1-2.3 1.9-3.7 2.5-1.4.6-2.9.9-4.5.9s-3.1-.3-4.5-.9c-1.4-.6-2.7-1.4-3.7-2.5-1.1-1.1-1.9-2.3-2.5-3.7-.7-1.4-1-2.9-1-4.5zm7 0c0 .6.1 1.2.4 1.8.2.6.6 1.1 1 1.5s.9.8 1.5 1c.6.2 1.2.4 1.8.4s1.2-.1 1.8-.4c.6-.2 1.1-.6 1.5-1 .4-.4.8-.9 1-1.5.2-.6.4-1.2.4-1.8s-.1-1.2-.4-1.8c-.2-.6-.6-1.1-1-1.5-.4-.4-.9-.8-1.5-1-.6-.2-1.2-.3-1.9-.3-.6 0-1.2.1-1.8.4-.6.3-1.1.6-1.5 1s-.8.9-1 1.5c-.2.5-.3 1.1-.3 1.7zM-97.2 367.5h7.4v16.4h6.1v5.8h-13.5v-22.2zM-82.5 367.5h13.1v5.8h-6v2.5h5.9v5.5h-5.9v2.6h6.2v5.8h-13.3v-22.2zM-56.6 367.5h5.9l5.7 8.5 5.8-8.5h5.9v22.2h-7.1v-8l-4.6 6.7-4.6-6.6v8h-7.1l.1-22.3zM-31.5 378.6c0-1.6.3-3.1.9-4.5s1.4-2.7 2.5-3.7c1.1-1.1 2.3-1.9 3.7-2.5 1.4-.6 2.9-.9 4.5-.9s3.1.3 4.5.9 2.7 1.4 3.7 2.5c1.1 1.1 1.9 2.3 2.5 3.7s.9 2.9.9 4.5-.3 3.1-.9 4.5c-.6 1.4-1.4 2.7-2.5 3.7-1.1 1.1-2.3 1.9-3.7 2.5-1.4.6-2.9.9-4.5.9s-3.1-.3-4.5-.9c-1.4-.6-2.7-1.4-3.7-2.5-1.1-1.1-1.9-2.3-2.5-3.7-.6-1.4-.9-2.9-.9-4.5zm7 0c0 .6.1 1.2.4 1.8.2.6.6 1.1 1 1.5s.9.8 1.5 1c.6.2 1.2.4 1.8.4.6 0 1.2-.1 1.8-.4.6-.2 1.1-.6 1.5-1s.8-.9 1-1.5.4-1.2.4-1.8-.1-1.2-.4-1.8c-.3-.6-.6-1.1-1-1.5-.4-.4-.9-.8-1.5-1-.6-.2-1.2-.3-1.9-.3-.6 0-1.2.1-1.8.4-.6.3-1.1.6-1.5 1s-.8.9-1 1.5-.3 1.1-.3 1.7zM-6.4 389.7v-22.2h6.1c2.1 0 3.9.2 5.6.7 1.6.5 3 1.2 4.1 2.1 1.1.9 2 2.1 2.6 3.5.6 1.4.9 3 .9 4.8 0 1.8-.3 3.4-.9 4.8-.6 1.4-1.4 2.5-2.6 3.5-1.1.9-2.5 1.6-4.1 2.1s-3.5.7-5.6.7h-6.1zm7.1-6.3c1.7 0 2.9-.4 3.9-1.2.9-.8 1.4-2 1.4-3.6s-.5-2.8-1.4-3.6-2.2-1.2-3.9-1.2v9.6zM14.7 367.5h13.1v5.8h-6v2.5h5.9v5.5h-5.9v2.6H28v5.8H14.7v-22.2zM30 367.5h7.4v16.4h6.1v5.8H30v-22.2zM53.7 368h5.8l5.7 8.4 5.7-8.4h5.8v22h-7v-8l-4.5 6.6-4.5-6.6v7.9h-7V368zM79 368h12.9v5.8H86v2.4h5.8v5.5H86v2.5h6.2v5.8H79v-22zM94.2 368h5.8l6.1 8.5V368h6.9v22h-5.8l-6-8.4v8.4h-6.9v-22h-.1zM118.1 373.7H114V368h15.4v5.8h-4.1V390h-7.2v-16.3zM153.9 368h7.6c1.4 0 2.7.2 3.9.6 1.2.4 2.2.9 3.1 1.6.9.7 1.6 1.6 2.1 2.7s.7 2.3.7 3.7c0 1.1-.2 2-.5 2.8-.3.8-.6 1.4-1 1.9-.4.6-.9 1.1-1.5 1.4l4.1 7.2h-8.2l-3.3-5.6v5.6h-7V368zm7 10.8h.4c.8 0 1.5-.2 2.1-.6.6-.4.9-1 .9-1.9 0-.9-.3-1.5-.9-1.9s-1.3-.6-2.1-.6h-.4v5zM173 383.1c.5.2 1 .3 1.5.4.4.1.9.2 1.5.3.6.1 1.1.1 1.7.1 1 0 1.5-.4 1.5-1.1 0-.3-.2-.6-.5-.9-.3-.3-.7-.6-1.2-1l-1.5-1.2c-.5-.4-1-.9-1.5-1.5s-.9-1.2-1.2-1.9c-.3-.7-.5-1.5-.5-2.5s.2-1.9.6-2.7c.4-.8.9-1.4 1.5-2s1.4-.9 2.3-1.2c.9-.3 1.8-.4 2.8-.4.5 0 1.1 0 1.6.1s1 .1 1.4.1c.5.1 1 .1 1.4.2v6.1c-.2 0-.4 0-.6-.1-.2 0-.4 0-.6-.1H182s-.4 0-.6.1c-.2 0-.3.1-.5.2-.1.1-.2.3-.2.5s.1.4.4.7c.3.3.7.6 1.1.9.4.4.9.8 1.4 1.2.5.5 1 1 1.4 1.6s.8 1.3 1.1 2c.3.7.4 1.6.4 2.5 0 1-.2 1.9-.5 2.7-.3.8-.8 1.6-1.4 2.2s-1.5 1.1-2.5 1.5-2.2.5-3.6.5c-.8 0-1.6 0-2.3-.1-.7-.1-1.3-.2-1.9-.3s-1.2-.2-1.7-.4v-6.5h.4zM151.2 374.5c-.6-1.4-1.4-2.6-2.5-3.7-1-1-2.3-1.9-3.7-2.5-1.4-.6-2.9-.9-4.5-.9s-3.1.3-4.5.9c-1.4.6-2.6 1.4-3.7 2.5-1 1-1.9 2.3-2.5 3.7s-.9 2.9-.9 4.5.3 3.1.9 4.5 1.4 2.6 2.5 3.7c1 1 2.3 1.9 3.7 2.5 1.4.6 2.9.9 4.5.9s3.1-.3 4.5-.9c1.4-.6 2.6-1.4 3.7-2.5 1-1 1.9-2.3 2.5-3.7s.9-2.9.9-4.5-.3-3.1-.9-4.5zm-6 4.3l-1.6 1.5.3 1.8.4 2.6-2.6-1.4-1.4-.7-1.2.7-2.7 1.4.5-3.1.2-1.4-1.1-1.1-2.1-2 2.6-.4 1.8-.3 1-2 1-2.1 1 2 1 2.1 2.3.3 2.2.3-1.6 1.8zM109 393.6v2.8h2.8v2.2H109v2.8h-2.2v-2.8H104v-2.2h2.8v-2.8h2.2z"/><g id="tagline_-__x23_6E6C6C_3_"><path class="st1" d="M58.6 406.3c-1.3 0-2.1-.5-2.7-1.4v2.6h1v1.2h-3.4v-1.2h1v-7.2h-1v-1.2h2.3v1.3c.6-1 1.4-1.5 2.6-1.5 2 0 3.6 1.7 3.6 3.7.1 2.1-1.4 3.7-3.4 3.7zm-.2-6c-1.3 0-2.4 1-2.4 2.4s1.1 2.4 2.4 2.4c1.3 0 2.4-1.1 2.4-2.4 0-1.4-1-2.4-2.4-2.4zM66.4 406.4c-2.1 0-3.7-1.7-3.7-3.7s1.7-3.7 3.7-3.7c2.1 0 3.7 1.7 3.7 3.7s-1.7 3.7-3.7 3.7zm0-6.2c-1.4 0-2.4 1.1-2.4 2.5 0 1.3 1.1 2.4 2.4 2.4 1.3 0 2.4-1.1 2.4-2.5 0-1.3-1.1-2.4-2.4-2.4zM73.5 406.3c-.9 0-1.4-.3-1.9-.9v.7h-1V404h1.3c.1.8.6 1.2 1.4 1.2.7 0 1.2-.4 1.2-1.1 0-.5-.3-.8-.8-.9-1.5-.4-3-.7-3-2.3 0-1.1.9-2.1 2.3-2.1.9 0 1.3.3 1.6.7v-.5h1v2h-1.3c-.1-.7-.5-1-1.1-1s-1.1.4-1.1 1c0 .5.3.8.8.9 1.5.4 3 .6 3 2.3 0 1.2-.9 2.1-2.4 2.1zM76.6 406.2V405h1v-4.7h-1v-1.2h2.3v5.9h1v1.2h-3.3zm1.1-8v-1.6H79v1.6h-1.3zM81.8 406.2v-5.9h-1.2v-1.2h1.2v-2.5h1.3v2.5h1.4v1.2h-1.4v4.7h1.5v1.2h-2.8zM85 406.2V405h1v-4.7h-1v-1.2h2.3v5.9h1v1.2H85zm1-8v-1.6h1.3v1.6H86zM95.6 400.3l-2.4 5.9h-1.4l-2.4-5.9h-1v-1.2h3.3v1.2h-.8l1.6 4.3 1.7-4.3h-.9v-1.2h3.2v1.2h-.9zM103.7 403.1h-6.1c.3 1.5 1.4 2.1 2.4 2.1.9 0 1.5-.4 2-1.1h1.4c-.7 1.4-1.9 2.2-3.4 2.2-2 0-3.7-1.6-3.7-3.7s1.7-3.7 3.7-3.7 3.7 1.5 3.7 3.8c.1.1.1.3 0 .4zm-3.6-3c-1 0-2.1.7-2.4 2.1h4.9c-.3-1.4-1.4-2.1-2.5-2.1zM116.2 406.2V405h1v-4.7h-1v-1.2h2.3v5.9h1v1.2h-3.3zm1.1-8v-1.6h1.3v1.6h-1.3zM125.3 406.2V405h1v-2.7c0-1.5-.9-2-1.8-2-1 0-1.8.6-1.8 2.1v2.6h1v1.2h-3.4V405h1v-4.7h-1v-1.2h2.3v1.1c.5-.8 1.3-1.3 2.2-1.3 1.2 0 2.2.7 2.6 1.7.2.4.2.8.2 1.2v3.2h1v1.2h-3.3zM133.5 406.2V405h1.1v-7.1h-1.7c-1.4 0-1.3.9-1.3 1.3h1.3v1.2h-1.3v4.6h1.1v1.2h-3.4V405h1v-4.7h-1v-1.2h1c0-.5 0-1 .3-1.5.4-.7 1.2-1 2.3-1h3v8.4h1v1.2h-3.4zM143.4 406.2v-1c-.5.8-1.4 1.2-2.3 1.2-1.4 0-2.7-1-2.7-2.8v-3.2h-1v-1.2h2.3v4c0 1.4.9 2 1.8 2 .8 0 1.8-.5 1.8-2v-2.8h-1v-1.2h2.3v5.8h1v1.2h-2.2zM153.6 403.1h-6.1c.3 1.5 1.4 2.1 2.4 2.1.9 0 1.5-.4 2-1.1h1.4c-.7 1.4-1.9 2.2-3.4 2.2-2 0-3.7-1.6-3.7-3.7s1.7-3.7 3.7-3.7 3.7 1.5 3.7 3.8v.4zm-3.7-3c-1 0-2.1.7-2.4 2.1h4.9c-.3-1.4-1.4-2.1-2.5-2.1zM159.2 406.2V405h1v-2.7c0-1.5-.9-2-1.8-2-1 0-1.8.6-1.8 2.1v2.6h1v1.2h-3.4V405h1v-4.7h-1v-1.2h2.3v1.1c.5-.8 1.3-1.3 2.2-1.3 1.2 0 2.2.7 2.6 1.7.2.4.2.8.2 1.2v3.2h1v1.2h-3.3zM166.7 406.4c-2 0-3.7-1.6-3.7-3.7s1.7-3.7 3.6-3.7c.9 0 1.6.3 2.3 1v-.8h1.1v2.2h-1.2c-.5-.8-1.3-1.1-2.1-1.1-1.3 0-2.4 1.1-2.4 2.5 0 1.3 1.1 2.4 2.4 2.4.9 0 1.6-.4 2-1.2h1.4c-.5 1.5-1.9 2.4-3.4 2.4zM177.8 403.1h-6.1c.3 1.5 1.4 2.1 2.4 2.1.9 0 1.5-.4 2-1.1h1.3c-.7 1.4-1.9 2.2-3.4 2.2-2 0-3.7-1.6-3.7-3.7s1.7-3.7 3.7-3.7 3.7 1.5 3.7 3.8c.2.1.1.3.1.4zm-3.6-3c-1 0-2.1.7-2.4 2.1h4.9c-.3-1.4-1.5-2.1-2.5-2.1zM181.3 406.3c-.9 0-1.4-.3-1.9-.9v.7h-1V404h1.3c.1.8.6 1.2 1.4 1.2.7 0 1.2-.4 1.2-1.1 0-.5-.3-.8-.8-.9-1.5-.4-3-.7-3-2.3 0-1.1.9-2.1 2.3-2.1.9 0 1.3.3 1.6.7v-.5h1v2h-1.3c-.1-.7-.5-1-1.1-1s-1.1.4-1.1 1c0 .5.3.8.8.9 1.5.4 3 .6 3 2.3 0 1.2-1 2.1-2.4 2.1zM184.6 406.2v-1.7h1.3v1.7h-1.3z"/></g><path class="st2" d="M-72.5 425h.5v1h-.5z"/></svg>