<?xml version="1.0" standalone="no"?>
<!DOCTYPE svg PUBLIC "-//W3C//DTD SVG 1.1//EN" "http://www.w3.org/Graphics/SVG/1.1/DTD/svg11.dtd" >
<svg xmlns="http://www.w3.org/2000/svg">
<metadata>Generated by IcoMoon</metadata>
<defs>
<font id="icomoon" horiz-adv-x="1024">
<font-face units-per-em="1024" ascent="960" descent="-64" />
<missing-glyph horiz-adv-x="1024" />
<glyph unicode="&#x20;" horiz-adv-x="512" d="" />
<glyph unicode="&#xe900;" glyph-name="user" d="M1003.272 110.122l-294.348 174.121c99.498 111.935 99.498 261.182 99.498 265.328v182.413c0 4.146 0 4.146 0 8.291-24.874 132.664-169.976 219.725-298.494 219.725v0c-124.372 0-273.619-87.061-298.494-219.725 0-4.146 0-4.146 0-8.291v-182.413c0-8.291 0-157.538 99.498-265.328l-294.348-174.121c-8.291-8.291-16.583-20.729-16.583-37.312v-62.186c0-41.457 33.166-74.623 74.623-74.623h874.753c41.457 0 74.623 33.166 74.623 74.623v62.186c0 16.583-8.291 29.020-20.729 37.312zM936.94 23.062h-849.879v24.874l319.223 190.704c4.146 0 4.146 4.146 4.146 4.146s4.146 4.146 4.146 4.146c0 0 0 0 0 0 0 4.146 4.146 4.146 4.146 8.291s4.146 4.146 4.146 8.291c0 0 0 4.146 0 4.146 0 4.146 0 8.291 0 12.437 0 0 0 4.146 0 4.146 0 4.146 0 8.291-4.146 12.437 0 0 0 0 0 0s-4.146 4.146-4.146 4.146c0 4.146-4.146 4.146-4.146 8.291-107.789 82.915-111.935 240.453-111.935 240.453v178.267c16.583 74.623 116.081 145.101 211.433 145.101s198.996-66.332 211.433-145.101v-178.267c0 0 0-153.393-111.935-240.453 0 0-4.146-4.146-4.146-4.146 0-4.146-4.146-4.146-4.146-8.291 0 0 0 0 0 0 0-4.146-4.146-4.146-4.146-8.291s0-4.146-4.146-8.291c0-4.146 0-4.146 0-8.291s0-4.146 0-8.291c0 0 0-4.146 4.146-4.146 0-4.146 4.146-8.291 4.146-8.291s0 0 0 0 0 0 4.146-4.146 4.146-4.146 8.291-8.291l319.223-190.704v-24.874z" />
<glyph unicode="&#xe901;" glyph-name="twitter" d="M1024 733.6c-37.6-16.8-78.2-28-120.6-33 43.4 26 76.6 67.2 92.4 116.2-40.6-24-85.6-41.6-133.4-51-38.4 40.8-93 66.2-153.4 66.2-116 0-210-94-210-210 0-16.4 1.8-32.4 5.4-47.8-174.6 8.8-329.4 92.4-433 219.6-18-31-28.4-67.2-28.4-105.6 0-72.8 37-137.2 93.4-174.8-34.4 1-66.8 10.6-95.2 26.2 0-0.8 0-1.8 0-2.6 0-101.8 72.4-186.8 168.6-206-17.6-4.8-36.2-7.4-55.4-7.4-13.6 0-26.6 1.4-39.6 3.8 26.8-83.4 104.4-144.2 196.2-146-72-56.4-162.4-90-261-90-17 0-33.6 1-50.2 3 93.2-59.8 203.6-94.4 322.2-94.4 386.4 0 597.8 320.2 597.8 597.8 0 9.2-0.2 18.2-0.6 27.2 41 29.4 76.6 66.4 104.8 108.6z" />
<glyph unicode="&#xe902;" glyph-name="linkedin" d="M928 960h-832c-52.8 0-96-43.2-96-96v-832c0-52.8 43.2-96 96-96h832c52.8 0 96 43.2 96 96v832c0 52.8-43.2 96-96 96zM384 128h-128v448h128v-448zM320 640c-35.4 0-64 28.6-64 64s28.6 64 64 64c35.4 0 64-28.6 64-64s-28.6-64-64-64zM832 128h-128v256c0 35.4-28.6 64-64 64s-64-28.6-64-64v-256h-128v448h128v-79.4c26.4 36.2 66.8 79.4 112 79.4 79.6 0 144-71.6 144-160v-288z" />
<glyph unicode="&#xe903;" glyph-name="instagram" d="M512 867.8c136.8 0 153-0.6 206.8-3 50-2.2 77-10.6 95-17.6 23.8-9.2 41-20.4 58.8-38.2 18-18 29-35 38.4-58.8 7-18 15.4-45.2 17.6-95 2.4-54 3-70.2 3-206.8s-0.6-153-3-206.8c-2.2-50-10.6-77-17.6-95-9.2-23.8-20.4-41-38.2-58.8-18-18-35-29-58.8-38.4-18-7-45.2-15.4-95-17.6-54-2.4-70.2-3-206.8-3s-153 0.6-206.8 3c-50 2.2-77 10.6-95 17.6-23.8 9.2-41 20.4-58.8 38.2-18 18-29 35-38.4 58.8-7 18-15.4 45.2-17.6 95-2.4 54-3 70.2-3 206.8s0.6 153 3 206.8c2.2 50 10.6 77 17.6 95 9.2 23.8 20.4 41 38.2 58.8 18 18 35 29 58.8 38.4 18 7 45.2 15.4 95 17.6 53.8 2.4 70 3 206.8 3zM512 960c-139 0-156.4-0.6-211-3-54.4-2.4-91.8-11.2-124.2-23.8-33.8-13.2-62.4-30.6-90.8-59.2-28.6-28.4-46-57-59.2-90.6-12.6-32.6-21.4-69.8-23.8-124.2-2.4-54.8-3-72.2-3-211.2s0.6-156.4 3-211c2.4-54.4 11.2-91.8 23.8-124.2 13.2-33.8 30.6-62.4 59.2-90.8 28.4-28.4 57-46 90.6-59 32.6-12.6 69.8-21.4 124.2-23.8 54.6-2.4 72-3 211-3s156.4 0.6 211 3c54.4 2.4 91.8 11.2 124.2 23.8 33.6 13 62.2 30.6 90.6 59s46 57 59 90.6c12.6 32.6 21.4 69.8 23.8 124.2 2.4 54.6 3 72 3 211s-0.6 156.4-3 211c-2.4 54.4-11.2 91.8-23.8 124.2-12.6 34-30 62.6-58.6 91-28.4 28.4-57 46-90.6 59-32.6 12.6-69.8 21.4-124.2 23.8-54.8 2.6-72.2 3.2-211.2 3.2v0zM512 711c-145.2 0-263-117.8-263-263s117.8-263 263-263 263 117.8 263 263c0 145.2-117.8 263-263 263zM512 277.4c-94.2 0-170.6 76.4-170.6 170.6s76.4 170.6 170.6 170.6c94.2 0 170.6-76.4 170.6-170.6s-76.4-170.6-170.6-170.6zM846.8 721.4c0-33.91-27.49-61.4-61.4-61.4s-61.4 27.49-61.4 61.4c0 33.91 27.49 61.4 61.4 61.4s61.4-27.49 61.4-61.4z" />
<glyph unicode="&#xe904;" glyph-name="facebook" d="M928 960h-832c-52.8 0-96-43.2-96-96v-832c0-52.8 43.2-96 96-96h416v448h-128v128h128v64c0 105.8 86.2 192 192 192h128v-128h-128c-35.2 0-64-28.8-64-64v-64h192l-32-128h-160v-448h288c52.8 0 96 43.2 96 96v832c0 52.8-43.2 96-96 96z" />
<glyph unicode="&#xe905;" glyph-name="icon01" horiz-adv-x="1356" d="M654.022 932.196c-2.459-0.738-3.197-16.968-3.197-68.363 0-57.788 0.492-67.871 3.935-71.068 2.705-2.951 8.853-3.935 23.116-3.935s20.41 0.984 23.116 3.935c3.443 3.197 3.935 13.279 3.935 71.068 0 59.019-0.492 67.379-3.935 68.609-4.672 1.721-42.542 1.721-46.968-0.246zM995.838 855.717c-4.426-4.672-8.115-9.836-8.115-11.558s-3.197-7.131-7.377-12.295c-3.935-5.164-7.377-10.328-7.377-11.558 0-1.475-2.705-5.656-6.148-9.836-3.443-3.935-6.148-8.853-6.148-10.574 0-1.967-3.197-7.131-7.377-11.558-3.935-4.426-7.377-9.836-7.377-12.049s-1.721-5.41-3.935-7.377c-1.967-1.721-5.902-7.377-8.607-12.541s-5.902-9.345-7.131-9.345c-8.115 0 4.426-16.722 17.459-23.362 4.672-2.459 10.574-6.394 13.525-8.853 4.918-4.672 13.279-4.18 13.279 0.492 0 0.984 3.443 5.902 7.377 10.328 4.18 4.672 7.377 10.082 7.377 12.049s2.213 6.394 5.164 9.59c2.705 3.197 6.885 9.345 8.853 13.279 2.213 4.18 5.164 8.115 6.885 9.099s3.935 4.918 4.918 8.607c0.738 3.689 4.918 10.328 8.853 14.754 3.935 4.672 7.131 9.836 7.131 11.558 0 1.967 1.475 4.672 3.443 6.148 3.443 2.951 13.771 22.87 13.771 26.804 0 2.459-36.148 27.788-38.854 27.296-0.984-0.246-5.41-4.18-9.59-9.099zM339.504 844.651c-2.951-1.721-9.345-6.394-14.263-10.82-11.066-10.082-11.558-17.952-1.475-29.509 4.18-4.426 7.377-9.836 7.377-11.558 0-1.967 1.721-4.672 3.935-6.639 1.967-1.721 6.148-7.377 9.099-12.788 8.607-15 17.214-29.755 22.378-37.624 12.541-18.935 15.984-24.837 17.459-29.755 2.459-8.853 12.541-9.836 20.656-2.213 3.689 3.443 7.87 6.394 9.59 6.394 4.672 0 20.164 15 20.164 19.427 0 2.459-2.705 6.639-6.148 9.59s-6.148 7.377-6.148 9.836c0 2.705-2.213 6.639-5.164 9.345-4.918 4.426-10.082 12.788-20.164 32.706-2.705 4.918-6.639 11.066-9.099 13.771s-5.902 7.624-7.377 11.066c-2.951 6.885-12.295 20.902-18.198 27.788-4.426 4.918-15 5.41-22.623 0.984zM627.464 688.991c-6.639-1.967-22.623-4.672-35.411-6.148-15.492-1.475-25.82-3.935-30.984-7.131-4.426-2.705-13.279-5.656-19.919-6.394-6.639-0.984-15.984-4.18-20.656-7.131s-11.804-6.394-15.984-7.377c-3.935-0.738-9.59-3.689-12.295-6.148s-9.59-5.656-15-7.131c-5.656-1.475-10.82-4.426-11.558-6.148-0.738-1.967-6.148-5.902-12.049-8.607-5.902-2.951-12.788-6.639-15.492-8.361-7.377-4.426-64.921-53.363-67.133-57.051-0.984-1.721-6.885-9.099-13.279-16.23-25.329-29.018-33.936-40.329-39.1-51.149-2.951-6.148-7.131-12.541-9.59-14.263s-5.41-6.885-6.394-11.312c-0.738-4.18-4.18-11.066-7.377-14.754-3.197-3.935-5.902-9.836-5.902-13.034s-2.705-10.082-5.902-15.246c-3.197-4.918-6.639-14.017-7.624-19.919s-3.689-14.263-6.148-18.444c-2.705-4.426-5.656-16.968-7.131-29.755-1.23-12.049-4.18-27.050-6.394-32.953-2.213-6.639-4.426-24.099-5.41-44.019-1.475-30.493-1.23-33.445 2.951-36.394 6.885-5.164 841.504-5.164 848.389 0 4.18 2.951 4.426 5.902 2.951 36.394-0.984 19.919-3.197 37.378-5.41 44.019-2.213 5.902-5.164 20.902-6.394 32.953-1.475 12.788-4.426 25.329-7.131 29.755-2.459 4.18-5.164 12.541-6.148 18.444s-4.426 15.246-7.624 20.902c-3.197 5.41-5.902 12.295-5.902 15.246 0 2.705-2.705 8.115-5.902 12.049-3.197 3.689-6.394 10.328-7.377 14.509-0.984 4.426-3.935 9.836-6.885 12.295-2.705 2.705-7.131 9.345-9.836 14.754-4.426 9.836-13.525 21.394-38.363 49.92-6.394 7.131-12.295 14.509-13.279 16.23-2.213 3.689-59.757 52.624-67.133 57.051-2.705 1.721-9.59 5.41-15.492 8.361-5.902 2.705-11.312 6.639-12.049 8.607-0.738 1.721-5.902 4.672-11.558 6.148-5.41 1.475-12.295 4.672-15 7.131s-8.115 5.41-12.295 6.148c-3.935 0.984-11.312 4.426-15.984 7.377s-14.017 6.148-20.656 7.131c-6.639 0.738-15.492 3.689-19.919 6.394-5.41 3.197-14.263 5.41-27.296 6.394-10.82 0.738-26.558 3.689-35.165 6.148-19.919 5.902-85.331 6.394-104.758 0.738zM698.778 636.366c9.59-1.475 29.509-3.689 44.264-5.164 18.935-1.721 29.509-3.935 34.919-7.377 4.18-2.705 13.279-5.41 20.164-6.394 7.377-0.738 15.738-3.935 20.41-7.131 4.18-3.197 10.328-5.902 13.279-5.902s8.853-2.705 12.788-6.148c4.18-3.443 9.099-6.148 11.312-6.148 1.967 0 7.377-3.197 11.804-6.885 4.426-3.935 10.82-7.87 14.263-8.607 15.246-3.935 96.397-85.085 105.004-105.004 1.967-4.672 6.394-11.804 9.59-15.492 3.197-3.935 5.902-8.361 5.902-10.328 0-1.721 1.721-4.426 3.443-6.148 1.967-1.475 5.656-8.607 7.87-15.492 2.213-7.131 6.148-15.246 8.607-18.444s5.164-10.82 6.148-17.214c0.738-6.394 3.689-15.246 6.394-19.673 3.197-5.164 5.656-15.984 7.377-31.968 4.18-39.837 4.18-40.575-2.951-42.542-3.443-0.984-165.99-1.721-361.487-1.721s-358.045 0.738-361.487 1.721c-6.885 1.967-6.885 1.967-3.197 42.296 1.721 16.476 3.935 26.066 7.377 31.968 2.705 4.672 5.902 13.525 6.639 19.919 0.984 6.394 3.689 14.017 6.148 17.214s6.394 11.558 8.607 18.444c2.459 7.131 5.41 13.525 6.639 14.509 1.23 0.738 4.18 5.656 6.394 11.066 1.967 5.164 4.672 9.59 6.148 9.59 1.23 0 3.935 4.18 6.148 9.099 9.099 22.132 95.413 108.938 108.2 108.938 2.213 0 7.624 3.443 12.295 7.377 4.426 4.18 10.082 7.377 12.049 7.377 2.213 0 7.131 2.705 11.312 6.148 3.935 3.443 9.836 6.148 12.788 6.148s9.099 2.705 13.771 6.148c5.41 3.935 11.558 6.148 17.214 6.148 5.164 0 14.017 2.705 20.164 5.902 8.115 4.426 18.444 6.639 40.329 8.853 15.984 1.721 34.919 3.935 41.558 4.918 17.952 2.459 22.623 2.459 41.804 0zM1245.19 641.285c-4.918-0.984-11.804-4.18-14.754-6.885-3.197-2.951-8.607-5.41-12.049-5.41-3.689 0-9.836-2.705-13.771-6.148-4.18-3.443-11.066-6.885-15.738-7.87-4.426-0.738-12.049-4.18-16.722-7.377-4.672-2.951-10.82-5.656-13.525-5.656-2.951 0-8.853-2.705-13.525-6.148s-9.59-6.148-11.312-6.148c-1.475 0-4.18-1.721-5.902-3.689-2.705-3.197-2.213-5.656 1.967-13.279 2.951-5.164 5.41-11.804 5.41-14.509 0-5.656 12.788-20.164 17.705-20.164 1.967 0 5.656 2.213 7.87 4.672 2.459 2.705 7.87 5.656 12.295 6.394 4.18 0.984 11.558 4.18 16.23 7.377 4.672 2.951 12.295 6.148 16.722 7.131 4.672 0.738 11.558 4.18 15.738 7.624 3.935 3.443 9.836 6.148 12.788 6.148s9.345 2.705 13.771 6.148c4.672 3.443 12.788 6.885 17.952 7.87 7.131 0.984 10.082 2.951 11.804 7.377 3.689 9.59 2.705 17.214-3.443 24.591-2.951 3.689-6.885 9.836-8.607 13.771-2.951 6.885-4.918 7.377-20.902 4.18zM90.152 624.316c-1.23-2.705-2.459-6.885-2.459-9.59s-2.213-7.624-4.918-11.066c-2.705-3.443-4.918-8.361-4.918-10.82 0-6.885 9.59-14.754 20.164-16.722 4.918-0.984 10.82-3.689 13.279-6.394 2.213-2.459 8.115-5.41 13.034-6.148 4.918-0.984 12.295-4.18 16.23-7.131 4.18-3.197 11.312-6.148 16.23-7.131 4.918-0.738 10.82-3.689 13.034-6.148s8.361-5.164 13.525-6.148c5.164-0.738 11.312-3.689 13.771-6.394 4.426-4.918 12.295-6.394 17.459-2.951 1.721 0.984 4.18 6.394 5.656 11.804 1.475 5.656 4.426 11.558 6.639 13.525 6.639 5.41 8.853 11.558 5.902 16.968-1.475 2.705-3.935 4.918-5.41 4.918s-6.394 2.705-10.82 6.148c-4.426 3.443-10.82 6.148-14.263 6.148-3.197 0-9.345 2.705-13.279 6.148-3.935 3.197-11.804 7.131-17.459 8.361-5.902 1.23-13.034 4.426-15.738 7.131-2.951 2.705-9.345 5.656-14.017 6.639s-11.804 4.426-15.492 7.624c-9.345 7.87-32.214 8.607-36.148 1.23zM1179.040 358.242c-3.689-1.967-4.426-6.148-4.426-24.345 0-14.017 0.984-22.378 2.951-23.608 1.475-0.984 34.182-1.721 72.297-1.721 52.378 0 70.577 0.738 73.527 3.197 2.705 2.213 3.689 8.115 3.689 22.378 0 28.035 3.443 26.804-77.461 26.804-40.575 0-68.116-1.23-70.577-2.705zM36.544 342.013c-3.197-5.902-2.951-40.575 0-44.264 3.197-4.18 135.004-4.672 142.382-0.738 3.935 2.213 4.672 5.41 4.672 22.87 0 12.541-1.23 21.64-2.951 23.362-2.213 2.213-21.64 2.951-72.543 2.951-63.691 0-69.593-0.246-71.559-4.18zM12.691 149.957c-1.721-4.672-1.475-45.985 0.246-50.657 1.475-3.689 62.215-3.935 664.94-3.935s663.464 0.246 664.94 3.935c2.213 5.41 1.721 48.445-0.492 51.395-1.23 1.721-225.745 2.459-664.94 2.459-550.101 0-663.71-0.492-664.694-3.197zM177.204 9.296c-4.426-1.721-5.41-4.672-6.639-22.623-0.984-14.263-0.492-20.902 1.475-22.132 3.443-2.213 1005.28-2.705 1010.936-0.492 5.164 1.967 2.705 40.083-2.951 44.756-3.197 2.213-106.725 2.951-500.672 2.705-273.452 0-499.198-0.984-502.148-2.213z" />
<glyph unicode="&#xe906;" glyph-name="arrows-right" horiz-adv-x="1488" d="M1237.423 479.466l-303.295 303.295c-18.577 18.577-48.527 18.577-67.104 0s-18.577-48.527 0-67.104l222.542-222.542h-810.177c-26.159 0-47.39-21.231-47.39-47.39s21.231-47.39 47.39-47.39h810.177l-222.542-222.542c-18.577-18.577-18.577-48.527 0-67.104 9.099-9.099 21.231-14.027 33.362-14.027s24.264 4.549 33.362 14.027l303.295 303.295c18.956 18.956 18.956 48.906 0.379 67.483z" />
<glyph unicode="&#xe907;" glyph-name="arrows-up" horiz-adv-x="1488" d="M712.534 941.423l-303.295-303.295c-18.577-18.577-18.577-48.527 0-67.104s48.527-18.577 67.104 0l222.542 222.542v-810.177c0-26.159 21.231-47.39 47.39-47.39s47.39 21.231 47.39 47.39v810.177l222.542-222.542c18.577-18.577 48.527-18.577 67.104 0 9.099 9.099 14.027 21.231 14.027 33.362s-4.549 24.264-14.027 33.362l-303.295 303.295c-18.956 18.956-48.906 18.956-67.483 0.379z" />
<glyph unicode="&#xe908;" glyph-name="arrows-left" horiz-adv-x="1488" d="M250.577 416.534l303.295-303.295c18.577-18.577 48.527-18.577 67.104 0s18.577 48.527 0 67.104l-222.542 222.542h810.177c26.159 0 47.39 21.231 47.39 47.39s-21.231 47.39-47.39 47.39h-810.177l222.542 222.542c18.577 18.577 18.577 48.527 0 67.104-9.099 9.099-21.231 14.027-33.362 14.027s-24.264-4.549-33.362-14.027l-303.295-303.295c-18.956-18.956-18.956-48.906-0.379-67.483z" />
<glyph unicode="&#xe909;" glyph-name="arrows-down" horiz-adv-x="1488" d="M775.466-45.423l303.295 303.295c18.577 18.577 18.577 48.527 0 67.104s-48.527 18.577-67.104 0l-222.542-222.542v810.177c0 26.159-21.231 47.39-47.39 47.39s-47.39-21.231-47.39-47.39v-810.177l-222.542 222.542c-18.577 18.577-48.527 18.577-67.104 0-9.099-9.099-14.027-21.231-14.027-33.362s4.549-24.264 14.027-33.362l303.295-303.295c18.956-18.956 48.906-18.956 67.483-0.379z" />
<glyph unicode="&#xe90a;" glyph-name="resize" d="M422.085 864.973c-40.511-44.463-77.070-85.963-81.023-92.88-10.869-16.797 20.749-42.488 52.367-42.488 47.428 0 59.285-21.738 59.285-104.737 0-110.666-1.975-112.641-111.652-112.641-99.795 0-115.606 6.917-115.606 50.392 0 36.56-8.892 58.296-25.689 58.296-15.81 0-191.687-158.093-191.687-172.915 0-18.774 170.937-167.973 191.687-167.973 16.797 0 21.738 6.917 23.714 39.523 3.953 55.332 20.749 64.224 116.594 64.224 106.712 0 112.641-5.929 112.641-112.641 0-93.867-11.857-113.629-68.177-112.641-33.595 0.988-54.345-16.797-42.488-38.535 19.761-33.595 155.129-170.937 169.95-170.937 23.714 0 179.83 164.021 175.878 185.758-1.975 11.857-15.81 18.774-46.439 22.726-59.285 7.904-70.153 26.678-70.153 117.581 0 100.784 8.892 108.688 114.616 108.688 92.88 0 110.666-9.882 114.616-64.224 3.953-57.309 27.666-56.32 89.915 1.975 28.654 25.689 68.177 62.249 88.927 80.035 19.761 17.786 36.56 37.546 36.56 44.463 0 16.797-173.901 174.89-191.687 174.89-16.797 0-25.689-21.738-25.689-58.296 0-43.475-15.81-50.392-115.606-50.392-109.677 0-111.652 1.975-111.652 112.641 0 84.975 11.857 104.737 63.237 104.737 36.56 0 61.261 21.738 49.404 41.5-20.749 34.583-159.081 175.878-171.926 175.878-7.904-0.988-48.417-37.546-89.915-82.010z" />
<glyph unicode="&#xe90b;" glyph-name="plus" horiz-adv-x="768" d="M454.4 518.4v281.6h-140.8v-281.6h-281.6v-140.8h281.6v-281.6h140.8v281.6h281.6v140.8h-281.6z" />
<glyph unicode="&#xe90c;" glyph-name="minus" d="M128 520v-144c0-13.254 10.746-24 24-24h720c13.254 0 24 10.746 24 24v144c0 13.254-10.746 24-24 24h-720c-13.254 0-24-10.746-24-24z" />
<glyph unicode="&#xe90d;" glyph-name="check" d="M864 832l-480-480-224 224-160-160 384-384 640 640z" />
<glyph unicode="&#xe90e;" glyph-name="arrow-lg-right" horiz-adv-x="4675" d="M3900.094-54.026c-59.844 36.572-63.169 89.765-3.324 129.663 139.635 89.765 279.272 179.533 418.909 269.298 9.974 6.65 23.272 13.299 33.249 29.921-13.299 0-26.596 0-39.897 0-1396.363 0-2792.724 0-4189.085 0-43.222 0-79.792 3.324-103.066 43.222 0 16.622 0 33.249 0 46.546 19.947 33.249 49.87 43.222 86.441 43.222 1403.011 0 2809.348 0 4212.359 0 13.299 0 29.921 0 43.222 0 0 16.622-13.299 19.947-23.272 23.272-146.285 99.741-289.247 196.155-435.533 295.896-63.169 43.222-63.169 89.765 0 132.987 16.622 0 33.249 0 46.546 0 69.819-33.249 129.663-79.792 192.832-123.013 156.259-106.39 315.843-212.778 472.103-319.168 19.947-13.299 39.897-26.596 39.897-56.52 0-13.299 0-26.596 0-39.897 0-26.596-16.622-39.897-36.572-53.194-179.533-113.039-355.74-229.403-535.271-345.764-26.596-16.622-56.52-36.572-83.116-53.194-29.921-23.272-59.844-33.249-96.417-23.272zM4658.12 418.079h-3.324c0 0-3.324 0-3.324 0 0 16.622 0 33.249 0 49.87 3.324 0 6.65 0 6.65 0 0-19.947 0-33.249 0-49.87z" />
<glyph unicode="&#xe90f;" glyph-name="arrow-lg-left" horiz-adv-x="4675" d="M774.906-54.026c59.844 36.572 63.169 89.765 3.324 129.663-139.635 89.765-279.272 179.533-418.909 269.298-9.974 6.65-23.272 13.299-33.249 29.921 13.299 0 26.596 0 39.897 0 1396.363 0 2792.724 0 4189.085 0 43.222 0 79.792 3.324 103.066 43.222 0 16.622 0 33.249 0 46.546-19.947 33.249-49.87 43.222-86.441 43.222-1403.011 0-2809.348 0-4212.359 0-13.299 0-29.921 0-43.222 0 0 16.622 13.299 19.947 23.272 23.272 146.285 99.741 289.247 196.155 435.533 295.896 63.169 43.222 63.169 89.765 0 132.987-16.622 0-33.249 0-46.546 0-69.819-33.249-129.663-79.792-192.832-123.013-156.259-106.39-315.843-212.778-472.103-319.168-19.947-13.299-39.897-26.596-39.897-56.52 0-13.299 0-26.596 0-39.897 0-26.596 16.622-39.897 36.572-53.194 179.533-113.039 355.74-229.403 535.271-345.764 26.596-16.622 56.52-36.572 83.116-53.194 29.921-23.272 59.844-33.249 96.417-23.272zM16.88 418.079h3.324c0 0 3.324 0 3.324 0 0 16.622 0 33.249 0 49.87-3.324 0-6.65 0-6.65 0 0-19.947 0-33.249 0-49.87z" />
<glyph unicode="&#xe910;" glyph-name="top" d="M997.852 109.229c12.098 9.075 18.148 22.686 18.148 36.297 0 9.075-3.024 18.904-9.075 27.223l-455.981 610.999c-8.319 11.343-21.931 18.148-36.297 18.148s-27.978-6.806-36.297-18.148l-455.226-610.999c-15.125-20.417-10.587-48.396 9.075-63.52 20.417-15.125 48.396-10.587 63.52 9.075l419.683 562.604 419.683-562.604c14.367-19.662 43.102-24.199 62.764-9.075z" />
<glyph unicode="&#xe911;" glyph-name="left" d="M850.771 933.852c-9.075 12.098-22.686 18.148-36.297 18.148-9.075 0-18.904-3.024-27.223-9.075l-610.999-455.981c-11.343-8.319-18.148-21.931-18.148-36.297s6.806-27.978 18.148-36.297l610.999-455.226c20.417-15.125 48.396-10.587 63.52 9.075 15.125 20.417 10.587 48.396-9.075 63.52l-562.604 419.683 562.604 419.683c19.662 14.367 24.199 43.102 9.075 62.764z" />
<glyph unicode="&#xe912;" glyph-name="down" d="M26.148 786.771c-12.098-9.075-18.148-22.686-18.148-36.297 0-9.075 3.024-18.904 9.075-27.223l455.981-610.999c8.319-11.343 21.931-18.148 36.297-18.148s27.978 6.806 36.297 18.148l455.226 610.999c15.125 20.417 10.587 48.396-9.075 63.52-20.417 15.125-48.396 10.587-63.52-9.075l-419.683-562.604-419.683 562.604c-14.367 19.662-43.102 24.199-62.764 9.075z" />
<glyph unicode="&#xe913;" glyph-name="right" d="M173.229-37.852c9.075-12.098 22.686-18.148 36.297-18.148 9.075 0 18.904 3.024 27.223 9.075l610.999 455.981c11.343 8.319 18.148 21.931 18.148 36.297s-6.806 27.978-18.148 36.297l-610.999 455.226c-20.417 15.125-48.396 10.587-63.52-9.075-15.125-20.417-10.587-48.396 9.075-63.52l562.604-419.683-562.604-419.683c-19.662-14.367-24.199-43.102-9.075-62.764z" />
<glyph unicode="&#xe914;" glyph-name="icon02" horiz-adv-x="1014" d="M486.965 949.969c-2.216-3.324-0.923-105.62 1.292-108.204 2.77-3.509 33.421-3.324 36.376 0.185 1.478 1.662 2.032 17.912 1.662 55.764l-0.554 53.363-18.835 0.554c-12.371 0.369-19.204-0.185-19.942-1.662zM754.153 893.283c-4.616-3.509-10.71-12.925-16.803-25.667-2.032-4.431-4.616-7.94-5.724-7.94s-3.693-3.509-5.724-7.755c-4.247-9.418-10.156-19.204-15.88-26.221-2.401-2.955-4.247-6.832-4.247-8.678 0-1.662-2.032-4.801-4.616-6.832-8.309-6.462-4.801-12.741 12.371-22.527 2.585-1.478 7.017-4.247 9.602-6.093 5.539-4.062 9.602-2.401 13.848 5.724 9.972 18.65 13.11 24.189 14.587 24.743 0.923 0.185 3.509 4.247 5.539 8.863 2.216 4.616 7.386 12.925 11.448 18.465s7.94 11.818 8.494 13.848c0.738 2.032 3.693 6.462 6.462 9.787 2.955 3.324 5.354 7.755 5.354 9.972 0 6.093-20.865 23.635-27.882 23.635-1.478 0-4.431-1.478-6.832-3.324zM243.598 882.757c-10.341-6.093-19.758-15.88-19.758-20.681 0-2.401 2.401-6.832 5.539-9.972 2.955-3.139 5.908-7.571 6.647-9.787 0.738-2.032 3.139-6.277 5.539-9.048 2.401-2.955 4.431-6.277 4.431-7.571s2.032-4.247 4.431-6.647c2.585-2.216 5.17-6.462 5.724-9.232s2.77-6.647 4.801-8.494c2.216-1.847 4.985-5.908 6.462-9.048 5.17-11.079 13.11-22.157 16.064-22.712 1.847-0.369 7.017 1.662 11.633 4.616 19.758 12.187 25.482 20.311 17.357 24.558-2.032 1.108-4.247 4.247-4.801 7.017-0.738 2.77-2.955 6.832-4.985 9.232-4.616 4.985-11.079 15.326-15.695 25.297-2.032 4.062-4.985 8.678-6.647 10.156-1.847 1.292-4.616 5.724-6.093 9.602s-3.324 7.017-4.247 7.017c-0.738 0-2.77 3.139-4.431 7.202-2.77 5.908-8.125 10.71-14.033 12.187-0.554 0.185-4.062-1.478-7.94-3.693zM466.655 745.378c-20.127-0.923-25.112-1.847-30.467-5.17-3.509-2.032-11.264-4.431-16.988-5.17-6.647-0.923-12.741-2.955-16.434-5.724-3.324-2.401-8.309-4.431-11.079-4.431-2.585 0-7.755-2.032-11.264-4.431-3.693-2.401-9.418-5.354-12.925-6.462-3.693-1.292-7.94-3.693-9.787-5.539-1.662-2.032-5.354-4.062-7.94-4.801-2.77-0.554-7.202-3.324-9.972-6.093-2.585-2.77-8.309-7.386-12.371-10.525-18.835-13.479-32.683-26.405-45.977-42.654-24.189-29.544-24.927-30.467-35.084-51.702-2.032-4.247-4.616-8.309-5.724-8.863-1.108-0.738-3.139-5.354-4.616-10.341s-4.247-11.448-6.277-14.217c-2.032-2.77-4.247-9.048-4.801-14.033-0.554-4.801-2.955-12.187-5.17-16.618-2.955-5.908-4.431-12.741-5.539-28.99-0.738-11.633-2.216-27.882-3.139-36.006-0.923-9.048-0.923-19.388 0.185-26.775 0.923-6.647 2.401-21.788 3.139-33.607 1.292-16.988 2.401-22.897 5.539-28.067 2.216-3.509 4.616-10.71 5.17-15.88 0.554-5.354 2.955-12.371 5.354-15.88s4.431-7.94 4.431-9.602c0-1.662 1.292-5.17 2.77-7.755s4.801-8.678 7.386-13.848c6.462-12.556 12.371-22.157 16.803-27.144 2.032-2.401 6.832-8.863 10.341-14.402 3.693-5.724 14.402-18.096 24.004-27.698 17.172-17.357 21.973-21.419 33.791-28.62 5.908-3.693 8.863-5.724 22.527-16.064 3.693-2.955 8.125-5.17 9.972-5.17 1.662 0 5.724-2.032 8.678-4.616 2.955-2.401 8.863-5.354 13.11-6.277 4.431-0.923 9.787-3.324 11.818-5.539 2.401-2.032 8.678-4.431 15.141-5.539 6.093-0.923 14.402-3.509 18.465-5.539 4.801-2.585 10.71-3.878 17.542-3.878 5.539 0 16.803-1.292 24.927-2.955 18.835-3.693 49.487-3.693 68.32 0 8.125 1.662 19.388 2.955 24.927 2.955 6.832 0 12.741 1.292 17.542 3.878 4.062 2.032 12.371 4.616 18.465 5.539 6.462 1.108 12.741 3.509 15.141 5.539 2.032 2.216 7.386 4.616 11.818 5.539 4.247 0.923 10.156 3.878 13.11 6.277 2.955 2.585 7.017 4.616 8.863 4.616 1.662 0 4.247 1.292 5.724 2.955 1.292 1.478 5.354 4.431 8.863 6.277 3.693 1.847 8.309 4.985 10.156 7.202 2.032 2.216 4.431 3.878 5.724 3.878 1.108 0 5.354 2.216 9.048 4.985 10.156 7.571 46.901 44.685 48.193 48.747 0.738 2.032 1.847 3.509 2.77 3.509s2.032 1.662 2.77 3.693c0.554 2.032 3.878 6.832 7.017 10.895 7.755 9.787 16.064 23.081 16.064 26.036 0 1.292 2.032 5.17 4.616 8.494s5.17 8.863 5.908 12.187c0.554 3.139 2.955 8.494 5.17 11.818s4.616 10.341 5.17 15.511c0.554 5.17 2.955 12.371 5.17 15.88 3.139 5.354 4.247 11.079 5.539 29.174 0.923 12.556 2.401 28.067 3.324 34.899 1.292 8.678 0.923 18.096-0.923 33.052-1.292 11.448-2.585 26.221-2.585 32.867 0 8.863-1.292 14.587-4.801 21.973-2.585 5.539-4.985 13.848-5.539 18.465-0.738 4.801-2.77 10.895-4.801 13.664s-4.801 9.232-6.277 14.217c-1.478 4.985-3.509 9.602-4.616 10.341-1.108 0.554-3.693 4.616-5.724 8.863-10.156 21.234-10.895 22.157-35.084 51.702-13.294 16.249-27.144 29.174-45.977 42.654-4.062 3.139-9.787 7.755-12.371 10.525-2.77 2.77-7.202 5.539-9.972 6.093-2.585 0.738-6.277 2.77-7.94 4.801-1.847 1.847-6.093 4.247-9.787 5.539-3.509 1.108-9.232 4.062-12.925 6.462-3.509 2.401-8.125 4.431-10.156 4.431s-7.202 2.032-11.448 4.431c-4.247 2.585-12.187 5.17-17.727 5.908-5.539 0.554-12.741 2.955-16.249 4.985-9.418 5.724-52.994 7.755-110.051 5.17zM535.898 707.34c9.602-1.478 21.234-2.77 25.852-2.77 5.17 0 11.448-1.662 16.618-4.431 4.616-2.401 12.001-4.985 16.618-5.724s11.264-3.139 14.772-5.539c3.509-2.216 9.048-4.801 12.001-5.539 3.139-0.554 7.202-2.585 9.232-4.431 2.032-1.662 9.048-6.462 15.695-10.341s17.357-11.818 24.004-17.357c21.973-18.835 55.21-57.426 55.395-64.258 0-1.292 2.585-4.801 5.539-7.94 3.139-3.139 5.539-7.571 5.539-9.787 0-2.401 2.032-7.017 4.431-10.156 2.401-3.324 4.801-9.418 5.539-13.664 0.738-4.062 3.139-10.895 5.539-15.141 2.955-5.17 4.801-12.002 5.539-21.788 0.738-7.755 2.585-19.019 4.247-24.927 4.062-14.772 4.062-47.64 0-62.966-1.847-6.277-3.693-18.096-4.431-26.221-0.923-11.448-2.032-16.064-5.354-20.681-2.77-3.693-4.431-8.494-4.431-12.741 0-4.616-1.662-8.863-5.539-13.664-2.955-3.878-5.539-8.863-5.539-11.079s-2.401-7.202-5.539-11.079c-2.955-3.878-5.539-7.94-5.539-9.232 0-5.908-32.314-42.101-55.395-62.411-17.727-15.326-22.897-19.204-27.698-20.681-2.585-0.738-6.647-3.324-9.232-5.539-2.585-2.401-7.017-4.985-10.156-5.724-2.955-0.554-7.386-2.955-9.602-4.985s-8.309-4.247-13.294-5.17c-5.17-0.738-11.633-3.324-14.772-5.539-4.062-2.955-9.418-4.431-21.788-5.539-8.863-0.738-19.942-2.77-24.558-4.616-6.277-2.216-14.587-2.955-33.237-2.955s-26.959 0.738-33.237 2.955c-4.616 1.847-15.695 3.878-24.558 4.616-12.371 1.108-17.727 2.585-21.788 5.539-3.139 2.216-9.602 4.801-14.772 5.539-4.985 0.923-11.079 3.139-13.294 5.17s-6.462 4.431-9.602 4.985c-2.955 0.738-7.571 3.324-10.156 5.724-2.585 2.216-6.647 4.801-9.232 5.539-4.801 1.478-12.371 7.017-22.897 16.618-3.324 3.139-9.972 8.863-14.587 12.741-10.156 8.309-45.608 49.856-45.608 53.548 0 1.292-2.401 5.539-5.539 9.418s-5.539 8.863-5.539 11.264c0 2.216-2.032 6.647-4.801 9.787-2.77 3.324-5.17 9.232-6.093 14.957-0.738 4.985-2.955 10.895-4.801 12.925-2.032 2.216-3.693 8.678-4.801 18.835-0.923 8.494-3.139 21.234-4.801 28.251-4.247 16.988-4.247 47.64 0 62.78 1.847 6.093 3.693 17.357 4.247 24.927 0.923 9.602 2.585 16.249 5.539 21.419 2.401 4.247 4.801 11.079 5.539 15.141 0.738 4.247 3.139 10.341 5.539 13.664 2.401 3.139 4.431 7.755 4.431 10.156 0 2.216 2.401 6.647 5.539 9.787s5.539 6.647 5.539 7.755c0 10.341 55.026 67.582 77.552 80.876 7.571 4.431 15.511 9.418 17.542 11.264s6.277 3.878 9.232 4.431c3.139 0.738 8.494 3.324 12.002 5.539 3.509 2.401 10.156 4.801 14.772 5.539s12.002 3.324 16.618 5.724c5.354 2.955 11.633 4.431 17.542 4.616 4.985 0 15.88 1.108 24.004 2.585 20.127 3.139 39.146 3.139 60.010 0zM947.296 724.882c-4.801-0.554-10.341-2.585-12.187-4.431-2.032-1.662-7.386-4.247-11.818-5.724-4.431-1.292-11.264-4.616-15.141-7.202s-9.048-4.801-11.448-4.801c-2.216 0-6.647-2.032-9.602-4.616-3.139-2.585-8.309-5.17-11.818-5.908-7.202-1.478-22.527-11.633-23.266-15.695-0.369-1.478 1.662-5.354 4.247-8.678 2.77-3.139 5.724-8.678 6.647-12.187 2.585-9.418 8.678-11.818 16.988-6.647 3.509 2.032 8.125 3.878 10.156 3.878s6.277 2.032 9.232 4.616c2.955 2.401 8.863 5.354 13.11 6.277 4.431 0.923 9.787 3.509 12.002 5.539 2.216 2.216 6.277 3.878 8.863 3.878s6.832 1.847 9.602 3.878c2.77 2.216 8.863 5.17 13.664 6.462 8.494 2.585 18.835 10.525 18.835 14.587 0 1.108-2.032 4.062-4.616 6.462-2.585 2.585-4.616 6.462-4.616 9.232 0 5.354-3.139 10.156-7.386 11.448-1.478 0.369-6.647 0.185-11.448-0.369zM49.531 711.771c-1.662-2.401-2.955-6.093-2.955-8.309s-1.292-4.985-2.955-6.277c-4.985-4.247-6.647-8.863-4.431-13.11 2.585-4.801 12.556-10.895 17.912-10.895 2.216 0 6.277-2.032 9.232-4.431 2.77-2.401 8.494-4.801 12.556-5.539 3.878-0.738 9.602-3.509 12.556-5.908s7.202-4.431 9.602-4.431c2.401 0 6.647-2.032 9.602-4.431 2.77-2.401 8.125-4.985 11.633-5.724s8.309-2.585 10.71-4.062c7.94-4.985 13.294-2.585 17.172 7.571 1.847 4.985 5.17 10.895 7.386 13.294 2.401 2.585 3.509 5.354 2.77 7.571-1.662 4.801-14.587 13.11-23.451 15.141-4.247 0.923-9.418 3.324-11.448 5.354-2.216 2.032-6.832 4.062-10.156 4.801-3.509 0.554-8.678 3.139-11.448 5.539-2.955 2.401-8.309 4.985-12.187 5.724-3.878 0.554-9.602 3.324-12.925 5.724-4.062 3.139-9.418 4.985-16.064 5.724-9.048 0.923-10.341 0.554-13.11-3.324zM948.774 466.926c-43.024-0.554-50.225-1.108-53.179-3.693-2.77-2.401-3.324-5.908-3.324-19.019 0-11.448 0.738-16.803 2.585-18.281 3.878-3.324 107.835-3.693 109.128-0.554 2.032 5.17 0.923 38.406-1.292 40.623-1.292 1.292-2.585 2.032-3.139 1.847-0.738-0.369-23.451-0.738-50.779-0.923zM9.462 454.185c-0.923-1.292-1.478-10.895-1.292-21.234l0.554-19.204 52.994-0.554c46.162-0.369 53.179 0 55.764 2.585 3.693 3.693 4.247 31.575 0.738 36.376-2.032 2.585-8.863 2.955-54.656 3.509-37.668 0.369-52.81 0-54.102-1.478zM132.809 256.98c-1.847-1.478-6.277-3.139-10.156-3.878-3.693-0.738-9.048-3.324-12.001-5.724s-7.571-4.431-10.341-4.431c-2.955 0-6.832-1.847-9.232-4.431s-7.386-4.985-11.264-5.724c-3.878-0.738-9.787-3.139-13.11-5.724-3.324-2.401-7.755-4.431-9.787-4.431-5.17 0-15.141-6.277-17.727-10.895-2.216-4.247-0.554-8.863 4.431-13.11 1.662-1.292 2.955-4.062 2.955-6.277s1.292-5.908 2.955-8.309c2.77-3.878 4.062-4.247 13.11-3.324 6.647 0.738 12.002 2.585 16.064 5.724 3.324 2.401 9.048 5.17 12.925 5.724 3.878 0.738 9.232 3.324 12.187 5.724 2.77 2.401 7.94 4.985 11.448 5.539 3.324 0.738 7.94 2.77 10.156 4.801 2.032 2.032 7.386 4.431 11.818 5.354 4.247 0.923 10.156 3.878 13.11 6.277 2.955 2.585 6.093 4.616 7.017 4.616 3.878 0 3.509 6.647-0.738 12.741-2.585 3.693-5.724 9.602-6.832 13.11-1.292 3.509-3.139 7.017-4.247 7.755-3.139 2.216-9.048 1.662-12.741-1.108zM865.682 246.27c-1.662-2.216-2.955-5.539-2.955-7.202s-2.401-6.093-5.539-9.972c-6.832-8.678-6.832-10.71-0.369-15.511 2.77-2.216 6.093-4.801 7.386-5.908 1.478-1.108 5.908-2.955 9.972-3.878 4.247-0.923 9.972-3.693 12.925-6.093 2.955-2.585 7.386-4.616 9.602-4.616 2.401 0 7.94-2.401 12.371-5.539 4.431-2.955 9.787-5.539 12.002-5.539 2.032 0 7.571-2.401 12.001-5.539 6.277-4.062 10.71-5.539 18.281-5.724 10.71-0.369 14.772 2.585 14.772 10.525 0 2.216 2.032 6.647 4.616 9.602 2.585 3.139 4.616 6.277 4.616 7.386 0 3.324-12.925 13.294-17.357 13.294-2.401 0-7.94 2.401-12.371 5.539-4.431 2.955-10.341 5.539-12.925 5.539s-6.647 2.032-8.863 4.431c-2.401 2.585-7.017 4.801-11.264 5.354-4.062 0.554-9.972 3.139-13.11 5.724s-7.386 4.801-9.602 4.801c-2.216 0-6.462 1.662-9.602 3.693-7.202 4.801-11.079 4.616-14.587-0.369zM278.496 122.556c-1.662-2.216-2.955-4.801-2.955-5.724s-2.032-4.062-4.616-7.202c-2.585-2.955-4.616-6.462-4.616-7.755s-2.032-4.247-4.431-6.462c-2.401-2.401-4.985-6.277-5.724-9.048-0.554-2.585-2.77-6.832-4.801-9.418-6.832-8.863-12.556-17.727-15.141-23.451-1.478-3.139-4.801-7.755-7.571-10.525-2.585-2.585-4.801-6.832-4.801-9.232 0-4.801 10.156-15.141 20.496-21.050 6.093-3.509 7.202-3.693 12.187-1.108 3.509 1.478 7.017 5.539 8.863 9.972 1.847 3.878 3.878 7.202 4.616 7.202 0.923 0 2.77 3.139 4.247 7.017 1.478 3.693 4.985 8.863 7.571 11.264 2.585 2.585 4.801 5.724 4.801 7.202 0 3.139 8.125 16.803 15.326 25.297 2.77 3.324 4.985 7.202 4.985 8.678s2.032 4.616 4.616 7.017c2.585 2.401 4.616 5.724 4.616 7.571 0 3.509-8.494 11.079-20.865 18.835-9.972 6.093-13.11 6.277-16.803 0.923zM719.623 111.846c-3.878-2.955-7.755-5.539-8.678-5.539s-4.616-2.216-8.125-4.985c-6.647-5.539-8.309-12.371-3.509-14.217 1.662-0.554 4.247-4.247 5.724-7.94 1.662-3.878 4.247-8.494 5.908-10.341 4.062-4.616 10.525-15.326 14.957-24.743 2.032-4.431 4.616-7.94 5.724-7.94s3.693-3.509 5.724-7.755c10.895-23.081 19.388-31.391 28.805-27.513 8.125 3.324 22.712 17.357 22.712 21.973 0 2.216-2.401 6.647-5.354 9.972-2.77 3.324-5.724 7.755-6.462 9.787-0.554 2.032-4.431 8.309-8.494 13.848s-9.048 13.664-11.079 17.912c-2.032 4.247-4.616 8.309-5.539 8.863-1.662 1.108-4.801 6.462-14.957 25.297-2.585 4.985-6.462 8.678-9.232 8.863-0.554 0-4.247-2.401-8.125-5.539zM488.258 54.051c-2.585-3.139-3.324-106.174-0.923-108.574 0.923-0.923 9.972-1.478 20.127-1.292l18.281 0.554 0.554 53.363c0.369 37.853-0.185 54.102-1.662 55.764-2.955 3.509-33.607 3.693-36.376 0.185z" />
<glyph unicode="&#xe915;" glyph-name="icon03" horiz-adv-x="1510" d="M662.235 841.361c-5.459-1.095-11.192-2.991-13.366-4.086-1.903-1.358-11.192-3.285-20.726-4.372-10.364-1.358-20.726-4.372-25.372-7.92-4.372-2.991-13.366-6.278-19.926-7.372s-15.545-4.917-19.639-8.469c-4.372-3.285-10.647-6.278-13.908-6.278-3.537 0-10.911-3.537-16.64-8.178-5.729-4.372-12.555-8.178-15.291-8.178s-5.459-1.095-6.278-2.445c-1.095-1.358-14.197-10.911-29.744-21.275-26.459-17.465-50.765-38.464-72.586-61.933-5.459-6.004-13.366-14.453-18.010-19.379-4.372-4.634-11.192-13.908-14.998-20.475s-10.105-14.998-14.197-18.831c-4.372-3.83-7.633-8.178-7.633-9.815s-2.991-7.091-6.825-12.279c-3.83-5.183-6.825-11.459-6.825-13.908 0-2.739-2.991-8.469-6.825-12.821-3.83-4.634-7.633-12.279-8.469-17.465-1.095-4.917-4.086-11.459-7.091-14.746-2.739-3.285-6.004-12.006-7.372-19.379-1.095-7.633-4.634-17.735-7.633-22.917-3.537-5.729-6.278-16.64-7.372-28.648-0.816-10.647-4.086-27.299-7.372-36.835-3.83-12.279-6.004-28.099-7.091-53.207-1.644-35.203-1.644-35.748 4.917-40.106 6.004-4.372 42.845-4.634 469.058-4.634 426.507 0 463.074 0.271 469.058 4.634 6.546 4.372 6.546 4.917 4.917 40.106-1.095 24.827-3.285 41.201-7.372 53.207-2.991 9.56-6.278 26.204-7.091 36.835-1.095 12.821-3.537 22.111-7.091 27.004-2.739 4.086-6.278 14.453-7.633 22.917s-4.917 18.010-7.92 21.021c-2.739 3.285-6.004 10.105-7.091 15.291s-4.917 13.103-8.469 17.189c-3.537 4.372-6.546 9.815-6.546 12.279 0 4.634-11.734 23.466-22.111 36.018-2.991 3.83-9.815 13.366-14.746 21.275s-11.734 17.189-15.291 20.475c-3.537 3.537-10.911 11.192-16.378 17.189-21.275 23.198-45.835 44.197-72.586 61.933-15.545 10.364-28.648 19.926-29.744 21.275-0.816 1.358-3.537 2.445-6.278 2.445s-9.56 3.83-15.291 8.178c-5.729 4.634-13.103 8.178-16.64 8.178-3.285 0-9.56 2.991-13.908 6.278-4.086 3.537-13.103 7.372-19.639 8.469s-15.545 4.372-19.926 7.372c-4.634 3.537-14.998 6.546-25.109 7.92-9.56 1.095-20.184 3.83-23.74 5.729-5.183 2.991-26.204 3.83-96.601 4.372-49.383 0.271-94.408-0.549-99.591-1.644zM829.232 783.771c7.92-3.285 23.466-6.825 34.376-7.92 12.279-1.644 21.823-4.372 25.109-7.091 2.991-2.739 10.911-5.729 18.010-7.091s14.998-4.372 17.465-6.546c2.445-2.191 9.56-5.729 16.092-8.178 6.278-2.191 14.746-6.546 18.552-9.56s8.178-5.459 9.815-5.459c1.644 0 5.729-2.739 9.269-6.004s10.364-8.469 15.545-11.459c4.917-3.285 13.908-9.015 19.639-12.821 16.092-11.192 63.571-61.676 78.042-83.228 7.091-10.647 14.746-20.726 16.923-22.653s4.917-6.825 5.729-11.192c0.816-4.372 4.634-10.911 8.469-14.998 3.537-3.83 6.546-9.815 6.546-13.366 0-3.285 2.991-10.105 6.825-15.291s6.825-12.821 6.825-17.735c0-4.917 2.991-14.453 6.825-21.566 4.634-8.72 7.372-19.097 8.469-32.481 0.816-10.911 2.739-25.109 4.372-31.647 2.991-11.192 2.739-12.279-2.991-17.189-6.004-4.634-21.275-4.917-404.133-4.917s-398.112 0.271-404.133 4.917c-5.729 4.917-6.004 6.004-2.991 17.189 1.644 6.546 3.537 20.726 4.372 31.647 1.095 13.366 3.83 23.74 8.469 32.481 3.83 7.091 6.825 16.64 6.825 21.566s2.991 12.555 6.825 17.735c3.83 5.183 6.825 12.006 6.825 15.545s2.991 9.269 6.546 12.555c3.537 3.285 7.372 9.815 8.178 14.746 1.095 4.634 3.83 10.105 6.004 11.734 1.903 1.903 8.72 10.911 14.998 20.184 13.366 19.639 37.662 48.028 52.66 61.676 6.004 5.183 12.821 11.734 15.291 14.197 5.729 6.004 20.726 16.923 32.734 23.74 5.183 2.739 12.006 7.633 14.746 10.911 2.991 3.285 6.825 5.729 8.469 5.729 1.903 0 6.546 2.445 10.364 5.459s12.279 7.372 18.552 9.56c6.546 2.445 13.65 6.004 16.092 8.178s10.364 5.183 17.465 6.546c7.091 1.358 14.998 4.372 18.010 7.091s13.103 5.459 25.109 7.091c10.911 1.358 26.204 4.917 33.574 7.92 12.006 4.634 20.726 5.183 74.231 5.459 54.851 0 62.224-0.549 75.031-5.459zM17.161 255.487c-2.191-5.459-2.191-48.574 0-54.029 1.644-4.086 69.048-4.372 737.839-4.372s736.203 0.271 737.839 4.372c2.191 5.459 2.191 48.574 0 54.029-1.644 3.83-70.396 4.372-737.839 4.372-669.351 0-736.203-0.271-737.839-4.372zM207.342 104.050c-6.546-0.816-12.006-1.903-12.821-2.739-0.549-0.549-1.358-11.459-1.903-24.285l-1.095-23.198 560.753-0.549c308.337-0.549 562.118 0.271 563.76 1.358 1.903 1.358 2.739 9.56 1.644 24.561-1.095 19.926-1.903 22.653-7.091 23.74-7.92 1.903-1089.028 2.991-1103.214 1.095z" />
</font>
</defs>
</svg>
